<svg width="25" height="24" fill="none" xmlns="http://www.w3.org/2000/svg"><g clip-path="url(#a)"><path fill-rule="evenodd" clip-rule="evenodd" d="M12.979 24c-6.6 0-12-5.4-12-12s5.4-12 12-12 12 5.4 12 12-5.4 12-12 12Zm10.125-10.35c-.375-.15-3.15-.975-6.375-.45 1.35 3.675 1.875 6.675 2.024 7.275 2.25-1.5 3.9-3.975 4.35-6.825Zm-6.15 7.8c-.15-.9-.75-4.05-2.176-7.8h-.075c-5.774 2.025-7.874 6-8.024 6.375a10.171 10.171 0 0 0 6.3 2.175c1.425.075 2.775-.225 3.974-.75ZM5.328 18.9c.225-.375 3.075-5.025 8.325-6.75.15-.075.3-.075.374-.15-.225-.6-.524-1.2-.825-1.725-5.1 1.5-10.05 1.5-10.5 1.425v.3c0 2.625 1.05 5.025 2.626 6.9Zm-2.4-9c.45 0 4.65 0 9.45-1.275-1.726-3-3.525-5.55-3.825-5.925-2.775 1.425-4.95 4.05-5.625 7.2Zm7.65-7.875c.3.375 2.175 2.925 3.824 6 3.675-1.35 5.175-3.45 5.4-3.675-1.8-1.575-4.2-2.55-6.825-2.55-.825 0-1.65.075-2.4.225Zm10.35 3.525c-.226.3-1.95 2.475-5.7 4.05.225.525.45.975.675 1.5.075.15.15.375.224.525 3.375-.45 6.825.225 7.125.3-.075-2.4-.9-4.65-2.325-6.375Z" fill="#fff"/></g><defs><clipPath id="a"><path fill="#fff" transform="translate(.979)" d="M0 0h24v24H0z"/></clipPath></defs></svg>