<svg width="25" height="24" fill="none" xmlns="http://www.w3.org/2000/svg"><g clip-path="url(#a)" fill="#fff"><path d="M12.979 2.775c3 0 3.359.011 4.545.065a4.82 4.82 0 0 1 3.383 1.23 4.82 4.82 0 0 1 1.229 3.382c.054 1.189.067 1.548.067 4.548s-.01 3.36-.065 4.546a4.82 4.82 0 0 1-1.229 3.382 4.819 4.819 0 0 1-3.383 1.23c-1.186.053-1.541.065-4.545.065s-3.36-.011-4.546-.066a4.82 4.82 0 0 1-3.382-1.229 4.818 4.818 0 0 1-1.23-3.382c-.056-1.187-.07-1.542-.07-4.546 0-3.004.012-3.36.066-4.546a4.82 4.82 0 0 1 1.229-3.382 4.82 4.82 0 0 1 3.385-1.23c1.186-.054 1.546-.067 4.546-.067Zm0-2.025c-3.055 0-3.438.013-4.64.068a6.73 6.73 0 0 0-4.724 1.82 6.728 6.728 0 0 0-1.82 4.725C1.74 8.562 1.729 8.945 1.729 12c0 3.055.012 3.438.067 4.639a6.73 6.73 0 0 0 1.82 4.725 6.728 6.728 0 0 0 4.725 1.82c1.2.055 1.584.067 4.639.067s3.438-.012 4.639-.067a6.73 6.73 0 0 0 4.725-1.82 6.729 6.729 0 0 0 1.82-4.725c.055-1.2.067-1.584.067-4.639s-.012-3.438-.067-4.639a6.73 6.73 0 0 0-1.82-4.725 6.729 6.729 0 0 0-4.725-1.82C16.416.763 16.033.75 12.979.75Z"/><path d="M12.979 6.226a5.775 5.775 0 1 0 0 11.55 5.775 5.775 0 0 0 0-11.55Zm0 9.525a3.75 3.75 0 1 1 0-7.501 3.75 3.75 0 0 1 0 7.5ZM18.984 7.345a1.35 1.35 0 1 0 0-2.7 1.35 1.35 0 0 0 0 2.7Z"/></g><defs><clipPath id="a"><path fill="#fff" transform="translate(.979)" d="M0 0h24v24H0z"/></clipPath></defs></svg>