<svg width="284" height="284" fill="none" xmlns="http://www.w3.org/2000/svg"><rect x="44" y="44" width="196" height="196" rx="98" fill="#FE6571"/><path d="M141.815 164.625c19.953 0 36.128-16.181 36.128-36.142 0-19.961-16.175-36.143-36.128-36.143s-36.128 16.182-36.128 36.143c0 19.961 16.175 36.142 36.128 36.142Z" fill="#FC0"/><path d="M125.557 160.105h32.516l-3.014 18.093a4.297 4.297 0 0 1-4.236 3.593h-18.016a4.295 4.295 0 0 1-4.235-3.593l-3.015-18.093Z" fill="#FC0"/><path d="m158.373 174.089-32.58 1.723M158.395 169.187l-32.625.232" stroke="#082C4E" stroke-width="2" stroke-miterlimit="10" stroke-linecap="round" stroke-linejoin="round"/></svg>