<svg width="25" height="24" fill="none" xmlns="http://www.w3.org/2000/svg"><g clip-path="url(#a)"><path d="M22.729.75h-19.5a1.5 1.5 0 0 0-1.5 1.5v19.5a1.5 1.5 0 0 0 1.5 1.5h19.5a1.5 1.5 0 0 0 1.5-1.5V2.25a1.5 1.5 0 0 0-1.5-1.5ZM8.393 19.945H5.009V9.188h3.385v10.758ZM6.7 7.711a1.97 1.97 0 1 1 .012-3.938 1.97 1.97 0 0 1-.012 3.938Zm14.243 12.234h-3.316v-5.203c0-1.265 0-2.813-1.762-2.813s-1.975 1.337-1.975 2.742v5.345h-3.313V9.188h3.103v1.476h.07a3.526 3.526 0 0 1 3.173-1.758c3.385 0 4.02 2.25 4.02 5.133v5.906Z" fill="#fff"/></g><defs><clipPath id="a"><path fill="#fff" transform="translate(.979)" d="M0 0h24v24H0z"/></clipPath></defs></svg>