<svg width="25" height="24" fill="none" xmlns="http://www.w3.org/2000/svg"><g clip-path="url(#a)"><path d="M22.729.75h-19.5a1.5 1.5 0 0 0-1.5 1.5v19.5a1.5 1.5 0 0 0 1.5 1.5h19.5a1.5 1.5 0 0 0 1.5-1.5V2.25a1.5 1.5 0 0 0-1.5-1.5ZM20.42 6.081l-1.207 1.156a.353.353 0 0 0-.134.34v8.5a.35.35 0 0 0 .134.34l1.178 1.157v.253h-5.925v-.253l1.22-1.187c.121-.12.121-.155.121-.338V9.178l-3.394 8.625h-.458L8 9.178v5.775a.8.8 0 0 0 .219.663l1.588 1.925v.254h-4.5v-.254l1.587-1.925a.77.77 0 0 0 .205-.663v-6.68a.585.585 0 0 0-.191-.492l-1.413-1.7v-.254h4.382l3.387 7.425 2.978-7.425h4.177v.254Z" fill="#fff"/></g><defs><clipPath id="a"><path fill="#fff" transform="translate(.979)" d="M0 0h24v24H0z"/></clipPath></defs></svg>