<svg width="284" height="284" fill="none" xmlns="http://www.w3.org/2000/svg"><rect x="44" y="44" width="196" height="196" rx="98" fill="#3098F3"/><path d="M142.001 190.483c26.777 0 48.484-21.707 48.484-48.485 0-26.777-21.707-48.484-48.484-48.484-26.778 0-48.485 21.707-48.485 48.484 0 26.778 21.707 48.485 48.485 48.485Z" fill="#F2EAE2"/><path d="M162.407 157.171s-14.777 12.705-33.93 6.183M136.981 134.066l-7.485 16.247 8.46 3.197" stroke="#082C4E" stroke-width="1.5" stroke-miterlimit="10" stroke-linecap="round" stroke-linejoin="round"/><path d="M127.303 141.665c6.584-.809 11.266-6.801 10.457-13.385-.808-6.584-6.8-11.266-13.384-10.458-6.584.809-11.266 6.801-10.458 13.385.809 6.584 6.801 11.266 13.385 10.458ZM157.521 141.385c6.584-.809 11.266-6.801 10.458-13.385-.809-6.584-6.801-11.266-13.385-10.457-6.584.808-11.266 6.801-10.458 13.384.809 6.584 6.801 11.266 13.385 10.458ZM138.824 130.366l5.215-.237" stroke="#082C4E" stroke-width="1.5" stroke-miterlimit="10" stroke-linecap="round" stroke-linejoin="round"/></svg>